# xmcd
#
# Track frame offsets:
#	150
#	19599
#	44086
#	64134
#	78360
#	93970
#	109104
#	140379
#	155546
#	169883
#	192250
#	211065
#	237040
#	252411
#	268866
#	288394
#	304144
#
# Disc length: 4462 seconds
#
# Revision: 0
# Processed by: cddbd v1.5.2PL0 Copyright (c) Steve Scherf et al.
# Submitted via: EZCDAudioConverter 1.3.4.1
#
DISCID=ee116c11
DTITLE=Various Artist - Ghana Special 2/2
DYEAR=1900
DGENRE=
TTITLE0=African Brothers International Band - Wompe Masem
TTITLE1=Gyedu-Blay Ambolley and His Creations - Akoko Ba
TTITLE2=Sweet Talks - Akampanye
TTITLE3=Houghas Sorowonko - Enuanom Adofo
TTITLE4=Oscar Sulley's Nzele Soundz - Bukom
TTITLE5=Bokoor Band - You Can Go
TTITLE6=K. Frimpong and His Cubanos Fiestas - Kyenkyen Bi Adi M'Awu
TTITLE7=Basa Basa Soundz featuring Fela Anikulapo Kuti - Dr. Solutsu
TTITLE8=Pagadeja - Tamale
TTITLE9=Hedzoleh Soundz - Omusus Da Fe M'Musu
TTITLE10=Uhuru Dance Band - Yahyia Mu
TTITLE11=Dr. K. Gyasi and His Noble Kings - Noble Kings (Yako Aba)
TTITLE12=Wellis Band - Bindiga
TTITLE13=Boombaya - Boombaya
TTITLE14=Sawaaba Soundz - Owuo
TTITLE15=Cutlass Dance Band - Them Go Talk Of You
TTITLE16=Honny and The Bees Band - Sisi Mbon
EXTD=
EXTT0=
EXTT1=
EXTT2=
EXTT3=
EXTT4=
EXTT5=
EXTT6=
EXTT7=
EXTT8=
EXTT9=
EXTT10=
EXTT11=
EXTT12=
EXTT13=
EXTT14=
EXTT15=
EXTT16=
PLAYORDER=
